<?xml version="1.0" encoding="UTF-8" standalone="no"?>
<svg width="422px" height="201px" viewBox="0 0 422 201" version="1.1" xmlns="http://www.w3.org/2000/svg" xmlns:xlink="http://www.w3.org/1999/xlink">
    <!-- Generator: Sketch 3.7.2 (28276) - http://www.bohemiancoding.com/sketch -->
    <title>Welcome_pam</title>
    <desc>Created with Sketch.</desc>
    <defs>
        <filter x="-50%" y="-50%" width="200%" height="200%" filterUnits="objectBoundingBox" id="filter-1">
            <feOffset dx="0" dy="0" in="SourceAlpha" result="shadowOffsetOuter1"></feOffset>
            <feGaussianBlur stdDeviation="4" in="shadowOffsetOuter1" result="shadowBlurOuter1"></feGaussianBlur>
            <feColorMatrix values="0 0 0 0 0   0 0 0 0 0   0 0 0 0 0  0 0 0 0.25 0" type="matrix" in="shadowBlurOuter1" result="shadowMatrixOuter1"></feColorMatrix>
            <feMerge>
                <feMergeNode in="shadowMatrixOuter1"></feMergeNode>
                <feMergeNode in="SourceGraphic"></feMergeNode>
            </feMerge>
        </filter>
    </defs>
    <g id="High-Fidelity" stroke="none" stroke-width="1" fill="none" fill-rule="evenodd">
        <g id="Homepage-Desktop-Copy-6" transform="translate(-241.000000, -3856.000000)">
            <g id="News-and-announcements" transform="translate(0.000000, 3839.000000)">
                <g id="Welcome_pam" transform="translate(241.000000, 18.000000)">
                    <g id="Group" filter="url(#filter-1)" transform="translate(141.000000, 96.000000)">
                        <path d="M0,70.5 C0,31.6075 31.6075,0 70.5,0 C109.3925,0 141,31.6075 141,70.5 C141,109.3925 109.3925,141 70.5,141 C31.6075,141 0,109.3925 0,70.5 L0,70.5 Z" id="Shape" fill="#FFFFFF"></path>
                        <g transform="translate(44.650000, 27.025000)" id="Shape" fill="#164B78">
                            <path d="M0,5.7575 C0,2.9375 2.35,0.705 5.2875,0.705 C8.225,0.705 10.575,2.9375 10.575,5.7575 C10.575,8.5775 8.225,10.81 5.2875,10.81 C2.4675,10.81 0,8.5775 0,5.7575 L0,5.7575 Z"></path>
                            <path d="M41.0075,5.2875 C41.0075,2.4675 43.3575,0.235 46.295,0.235 C49.2325,0.235 51.5825,2.4675 51.5825,5.2875 C51.5825,8.1075 49.2325,10.34 46.295,10.34 C43.475,10.34 41.0075,8.1075 41.0075,5.2875 L41.0075,5.2875 Z"></path>
                        </g>
                        <g transform="translate(17.625000, 32.725000)" id="Shape" fill="#CCE9FF">
                            <path d="M77.6675,14.1575 C77.6675,6.4025 84.0125,0.0575 91.7675,0.0575 C99.5225,0.0575 105.8675,6.4025 105.8675,14.1575 C105.8675,21.9125 99.5225,28.2575 91.7675,28.2575 C84.0125,28.2575 77.6675,21.9125 77.6675,14.1575 L77.6675,14.1575 Z"></path>
                            <path d="M0,14.1575 C0,6.4025 6.345,0.0575 14.1,0.0575 C21.855,0.0575 28.2,6.4025 28.2,14.1575 C28.2,21.9125 21.855,28.2575 14.1,28.2575 C6.345,28.2575 0,21.9125 0,14.1575 L0,14.1575 Z"></path>
                        </g>
                        <g transform="translate(18.800000, 31.550000)" id="Shape" fill="#2E9FFF">
                            <g transform="translate(82.250000, 0.000000)">
                                <path d="M7.52,10.8675 C7.52,9.4575 8.5775,8.4 9.9875,8.4 C11.3975,8.4 12.455,9.4575 12.455,10.8675 C12.455,12.2775 11.28,13.335 9.9875,13.335 C8.695,13.335 7.52,12.2775 7.52,10.8675 L7.52,10.8675 Z"></path>
                                <path d="M0.94,2.525 C0.94,1.115 2.115,0.0575 3.4075,0.0575 C4.8175,0.0575 5.875,1.2325 5.875,2.525 C5.875,3.935 4.8175,4.9925 3.4075,4.9925 C2.115,5.11 0.94,3.935 0.94,2.525 L0.94,2.525 Z"></path>
                                <path d="M12.5725,2.525 C12.5725,1.115 13.63,0.0575 15.04,0.0575 C16.45,0.0575 17.5075,1.2325 17.5075,2.525 C17.5075,3.935 16.3325,4.9925 15.04,4.9925 C13.63,5.11 12.5725,3.935 12.5725,2.525 L12.5725,2.525 Z"></path>
                            </g>
                            <g>
                                <path d="M7.1675,10.8675 C7.1675,9.4575 8.3425,8.4 9.635,8.4 C11.045,8.4 12.1025,9.4575 12.1025,10.8675 C12.1025,12.2775 11.045,13.335 9.635,13.335 C8.3425,13.335 7.1675,12.2775 7.1675,10.8675 L7.1675,10.8675 Z"></path>
                                <path d="M0.5875,2.525 C0.5875,1.115 1.645,0.0575 3.055,0.0575 C4.465,0.0575 5.5225,1.2325 5.5225,2.525 C5.5225,3.935 4.3475,4.9925 3.055,4.9925 C1.645,5.11 0.5875,3.935 0.5875,2.525 L0.5875,2.525 Z"></path>
                                <path d="M12.1025,2.525 C12.1025,1.115 13.2775,0.0575 14.57,0.0575 C15.98,0.0575 17.0375,1.2325 17.0375,2.525 C17.0375,3.935 15.98,4.9925 14.57,4.9925 C13.2775,5.11 12.1025,3.935 12.1025,2.525 L12.1025,2.525 Z"></path>
                            </g>
                        </g>
                        <path d="M55.695,46.8825 C57.81,52.9925 63.685,57.34 70.5,57.34 C77.315,57.34 83.0725,52.9925 85.305,46.8825 C85.6575,45.825 84.365,45.0025 83.425,45.59 C80.135,47.1175 75.67,47.705 70.6175,47.705 C65.33,47.705 60.5125,47 57.2225,45.2375 C56.2825,44.7675 55.3425,45.825 55.695,46.8825 L55.695,46.8825 Z" id="Shape" fill="#2E9FFF"></path>
                    </g>
                    <ellipse id="Oval" stroke="#E5E5E5" stroke-width="2" cx="212" cy="168" rx="88" ry="88"></ellipse>
                    <circle id="Oval" stroke="#E5E5E5" stroke-width="2" cx="212" cy="168" r="123"></circle>
                    <path d="M45,168 C45,75.1888112 119.965035,0 212.5,0 C305.034965,0 380,75.1888112 380,168 C380,260.811189 305.034965,336 212.5,336 C119.965035,336 45,260.811189 45,168 L45,168 Z" id="Shape" stroke="#E5E5E5" stroke-width="2"></path>
                    <rect id="Rectangle-path" fill="#FFFFFF" x="0" y="199" width="422" height="141"></rect>
                    <rect id="Rectangle-path" fill="#E5E5E5" x="0" y="197" width="422" height="2"></rect>
                    <rect id="Rectangle-path" x="141" y="33" width="72" height="34"></rect>
                    <g id="Shape-+-Yo" transform="translate(144.000000, 13.000000)">
                        <path d="M16.9263158,63.84 C0.587719298,55.0707692 -4.58421053,34.2584615 5.28947368,17.7723077 C14.8105263,1.87076923 34.9105263,-3.62461538 50.1912281,4.91076923 C65.354386,13.3292308 70.8789474,32.9723077 62.2982456,48.9907692 C59.9473684,53.4338462 56.7736842,57.0584615 53.1298246,60.0984615 L51.2491228,75.1815385 L39.8473684,66.7630769 C32.3245614,68.5169231 24.0964912,67.8153846 16.9263158,63.84 L16.9263158,63.84 Z" id="Shape" fill="#2E87E7"></path>
                        <text id="Yo" fill="#FFFFFF" font-family="Helvetica" font-size="21.0461538" font-weight="normal">
                            <tspan x="19.8497491" y="39.3436369">Yo</tspan>
                        </text>
                    </g>
                    <rect id="Rectangle-path" x="289" y="84" width="124" height="48"></rect>
                    <g id="Shape-+-Hi" transform="translate(299.000000, 52.000000)">
                        <path d="M51.3529412,99 C77.7058824,99 99,76.8428571 99,49.5 C99,22.1571429 77.7058824,0 51.3529412,0 C25,0 3.70588235,22.1571429 3.70588235,49.5 C3.70588235,56.8071429 5.23529412,63.7607143 7.94117647,70.0071429 L0.0588235294,90.1607143 L20.5294118,87.2142857 C28.8823529,94.5214286 39.5882353,99 51.3529412,99 L51.3529412,99 Z" id="Shape" fill="#2E87E7"></path>
                        <text id="Hi" fill="#FFFFFF" font-family="Helvetica" font-size="28.2352941" font-weight="normal">
                            <tspan x="39.5131765" y="61.1318821">Hi</tspan>
                        </text>
                    </g>
                    <rect id="Rectangle-path" x="0" y="115" width="124" height="48"></rect>
                    <g id="Shape-+-:P" transform="translate(28.000000, 96.000000)">
                        <path d="M36.2109375,73 C16.171875,73 0,56.2806452 0,36.0290323 C0,16.0129032 15.703125,0 35.15625,0 C54.609375,0 70.78125,16.0129032 71.3671875,36.0290323 C71.484375,41.4451613 70.546875,46.6258065 68.5546875,51.2177419 L74.8828125,66.2887097 L59.296875,64.1693548 C53.3203125,69.7032258 45.234375,73 36.2109375,73 L36.2109375,73 Z" id="Shape" fill="#2E87E7"></path>
                        <text id=":P" fill="#FFFFFF" font-family="Helvetica" font-size="24.609375" font-weight="normal">
                            <tspan x="24.5374219" y="45.4561129">:P</tspan>
                        </text>
                    </g>
                </g>
            </g>
        </g>
    </g>
</svg>