<?xml version="1.0" encoding="UTF-8"?>
<svg width="94px" height="73px" viewBox="0 0 94 73" version="1.1" xmlns="http://www.w3.org/2000/svg" xmlns:xlink="http://www.w3.org/1999/xlink">
    <defs></defs>
    <g id="Active" stroke="none" stroke-width="1" fill="none" fill-rule="evenodd">
        <g id="Homepage-Desktop" transform="translate(-206.000000, -2955.000000)">
            <g id="Group-5" transform="translate(208.000000, 2956.000000)">
                <g id="Group">
                    <path d="M81.1100193,43.3496533 L90.3256838,33.956819 L77.3538298,31.7104324 C71.3636162,22.0618349 59.3699365,17.3429308 48.0662378,20.9839308 C34.7536004,25.2720095 27.4410635,39.5295981 31.7330401,52.8294933 C36.0252271,66.1293886 50.2966857,73.4349263 63.6093231,69.1468476 C74.9130218,65.5058476 81.889193,54.6767886 81.1100193,43.3496533" id="Fill-16" fill="#CFEBFF"></path>
                    <path d="M81.1100193,43.3496533 L90.3256838,33.956819 L77.3538298,31.7104324 C71.3636162,22.0618349 59.3699365,17.3429308 48.0662378,20.9839308 C34.7536004,25.2720095 27.4410635,39.5295981 31.7330401,52.8294933 C36.0252271,66.1293886 50.2966857,73.4349263 63.6093231,69.1468476 C74.9130218,65.5058476 81.889193,54.6767886 81.1100193,43.3496533 L81.1100193,43.3496533 Z" id="Stroke-18" stroke="#1B77C6" stroke-width="3.14585714" stroke-linecap="round" stroke-linejoin="round"></path>
                    <path d="M45.9783089,33.7853505 C51.10247,21.6465823 45.4063399,7.65610546 33.2559419,2.53684895 C21.1053335,-2.58240756 7.1016633,3.10806038 1.97750221,15.2470388 C-3.14665888,27.385807 2.5492609,41.3762839 14.6998692,46.4955404 C26.8502672,51.6147969 40.8541478,45.9241188 45.9783089,33.7853505" id="Fill-184" fill="#FFFFFF"></path>
                    <path d="M45.9783089,33.7853505 C51.10247,21.6465823 45.4063399,7.65610546 33.2559419,2.53684895 C21.1053335,-2.58240756 7.1016633,3.10806038 1.97750221,15.2470388 C-3.14665888,27.385807 2.5492609,41.3762839 14.6998692,46.4955404 C26.8502672,51.6147969 40.8541478,45.9241188 45.9783089,33.7853505 L45.9783089,33.7853505 Z" id="Stroke-185" stroke="#1B77C6" stroke-width="3.14585714" stroke-linecap="round" stroke-linejoin="round"></path>
                    <path d="M41.1729906,20.4575672 C40.7341795,19.3796631 39.5037834,18.8614117 38.4250569,19.2998028 C37.3461201,19.7381939 36.8273721,20.9674123 37.2661833,22.0451063 C37.7049944,23.1230104 38.9351801,23.6412618 40.0141169,23.2028707 C41.0930538,22.7644796 41.6118017,21.5354714 41.1729906,20.4575672" id="Fill-186" fill="#1B77C6"></path>
                    <path d="M12.6358162,32.0538317 C12.1970051,30.9759276 10.966609,30.4576762 9.8878825,30.8960673 C8.80894567,31.3344584 8.29019773,32.5636768 8.72900884,33.6413708 C9.16781996,34.7192749 10.3980057,35.2375263 11.4769425,34.7991352 C12.5558793,34.3607441 13.0746273,33.1317359 12.6358162,32.0538317" id="Fill-187" fill="#1B77C6"></path>
                    <path d="M29.162419,36.4612176 C31.0552389,35.6920366 33.1039357,35.9345598 34.7213943,36.9262989 C35.8257847,35.0792138 36.2568125,32.8534227 35.8520797,30.6999262 C35.6848435,29.8105344 34.7300191,29.3057331 33.8908927,29.6466106 L20.4625573,35.103382 C19.6280589,35.4423681 19.2906413,36.4639497 19.7883533,37.2140062 C21.0942686,39.1810919 23.1541145,40.531782 25.428738,41.0059001 C25.8134865,39.0283065 27.1549527,37.2770538 29.162419,36.4612176" id="Fill-188" fill="#1B77C6"></path>
                    <path d="M34.7214574,36.9263829 C33.1039988,35.9344337 31.055302,35.6921207 29.1624821,36.4613017 C27.1550159,37.2769277 25.8135497,39.0281804 25.4285907,41.0059842 C27.077393,41.3495937 28.8387379,41.2335861 30.5079451,40.5551937 C32.3380778,39.8116521 33.7763096,38.5076172 34.7214574,36.9263829" id="Fill-189" fill="#1B77C6"></path>
                    <path d="M60.5203747,32.7577584 C57.3136457,31.3457019 52.2199869,32.2006276 50.5057626,34.4928289 C48.4419199,37.2530537 52.9459395,39.8655368 51.9364215,44.9036721 C50.8938769,50.1067819 45.2181517,51.6693121 46.213786,53.5792346 C47.5600905,56.1620854 59.7395181,56.7595667 64.0971271,51.8441641 C66.2619426,49.4023298 65.7278384,46.4664124 64.8123514,41.433321 C63.9894227,36.907973 63.4706748,34.0569597 60.5203747,32.7577584" id="Fill-247" fill="#FFFFFF"></path>
                </g>
            </g>
        </g>
    </g>
</svg>
